# xmcd
#
# Track frame offsets:
#	150
#	8350
#	21480
#	35898
#	44924
#	61847
#	73712
#	88632
#	105070
#	115608
#	136217
#
# Disc length: 2061 seconds
#
# Revision: 1
# Processed by: cddbd v1.5.2PL0 Copyright (c) Steve Scherf et al.
# Submitted via: audiograbber 1.83.01
#
DISCID=8a080b0b
DTITLE=Ricky Koole - Ricky Koole
DYEAR=2007
DGENRE=
TTITLE0=The Wind
TTITLE1=If He's Ever Near
TTITLE2=I Live On A Battlefield
TTITLE3=Reason To Believe
TTITLE4=Love's Enough
TTITLE5=Lost And Lookin'
TTITLE6=Find A River
TTITLE7=Boots Like Emmy Lou's
TTITLE8=You Can Close Your Eyes
TTITLE9=Seven Shades Of Blue
TTITLE10=Home
EXTD=Forgotten songs and singers or not yet discoverd musicians
EXTT0=original: Cat Stevens
EXTT1=original: Karla Bonoff
EXTT2=original: Nick Lowe/ Paul Carrack
EXTT3=original: Tim Hardin
EXTT4=David Ackles
EXTT5=original: James W. Alexander/ Lowell Jordan
EXTT6=original: Fred Tackett
EXTT7=original: Janis Ian
EXTT8=original: James Taylor
EXTT9=original: Beth Nielsen Chapman
EXTT10=original: Karla Bonoff
PLAYORDER=
